<?xml version="1.0" encoding="UTF-8" standalone="no"?>
<svg
   xmlns:dc="http://purl.org/dc/elements/1.1/"
   xmlns:cc="http://creativecommons.org/ns#"
   xmlns:rdf="http://www.w3.org/1999/02/22-rdf-syntax-ns#"
   xmlns:svg="http://www.w3.org/2000/svg"
   xmlns="http://www.w3.org/2000/svg"
   xmlns:sodipodi="http://sodipodi.sourceforge.net/DTD/sodipodi-0.dtd"
   xmlns:inkscape="http://www.inkscape.org/namespaces/inkscape"
   id="a"
   viewBox="0 0 197.19999 176.95664"
   version="1.1"
   sodipodi:docname="2.svg"
   inkscape:version="1.0.2 (e86c870879, 2021-01-15)"
   width="197.2"
   height="176.95665">
  <metadata
     id="metadata59">
    <rdf:RDF>
      <cc:Work
         rdf:about="">
        <dc:format>image/svg+xml</dc:format>
        <dc:type
           rdf:resource="http://purl.org/dc/dcmitype/StillImage" />
        <dc:title></dc:title>
      </cc:Work>
    </rdf:RDF>
  </metadata>
  <sodipodi:namedview
     pagecolor="#ffffff"
     bordercolor="#666666"
     borderopacity="1"
     objecttolerance="10"
     gridtolerance="10"
     guidetolerance="10"
     inkscape:pageopacity="0"
     inkscape:pageshadow="2"
     inkscape:window-width="2048"
     inkscape:window-height="1079"
     id="namedview57"
     showgrid="false"
     inkscape:zoom="1"
     inkscape:cx="47.095001"
     inkscape:cy="43.350001"
     inkscape:window-x="0"
     inkscape:window-y="0"
     inkscape:window-maximized="1"
     inkscape:current-layer="a"
     fit-margin-top="0"
     fit-margin-left="0"
     fit-margin-right="0"
     fit-margin-bottom="0" />
  <defs
     id="defs4">
    <style
       id="style2">.b{fill:#ffbe2e;}.c{fill:#111;}.d{fill:#7777fc;}</style>
  </defs>
  <path
     class="c"
     d="m 181.62497,91.189299 c 0.60709,-0.523354 0.9839,-1.256051 1.02577,-2.072484 l 1.61194,-36.299872 c 0.0419,-0.837368 -0.25122,-1.653801 -0.83737,-2.30276 l -6.76174,-7.473504 c -0.96298,-1.067643 -1.13045,-2.55397 -0.39775,-3.747218 l 5.8197,-9.650658 c 1.61193,-2.679576 -1.19325,-5.735966 -4.50085,-4.919533 l -38.93758,9.692526 4.41711,-26.7120172 c 0,0 -12.60237,14.3189812 -16.22399,5.6312952 -2.42836,-5.8197022 -1.86314,9.692527 -0.9211,24.241784 l -4.66832,1.172314 c -0.64896,0.167473 -1.33979,0.230276 -2.00969,0.209342 L 70.6738,10.404289 c 0,0 0.230276,4.040297 0,8.101528 -3.893758,6.636136 -9.776263,-2.826114 -9.776263,-2.826114 L 59.66242,14.256178 C 57.171253,10.006539 58.280764,12.41397 58.197028,12.41397 L 37.807134,29.935881 c -0.837368,-0.209342 -1.716603,-0.04187 -2.407431,0.481486 L 13.9631,46.34828 c -0.293079,0.230276 -0.64896,0.355881 -1.004841,0.460552 -1.570064,0.502421 -2.616773,1.842208 -2.55397,3.349469 l 4.60552,104.545309 c 0.0628,1.591 1.360722,2.90985 3.098259,3.22386 0.418684,0.0837 0.837367,0.20935 1.193248,0.48149 l 19.091975,14.8842 c 1.004841,0.0419 0.983906,0.41869 1.737537,-0.16747 l 1.004841,-0.71176 c 4.249639,-3.32854 9.420382,-6.95015 14.779533,-2.07249 l 1.256051,1.25605 c 1.737537,1.17232 3.035456,2.67958 5.317282,2.4493 l 51.246875,-12.83265 c 0.48149,-0.1256 0.98391,-0.1256 1.44446,0 1.40259,0.39775 3.91469,1.25605 5.77784,0.69083 1.82127,-0.54429 1.52819,12.85359 2.93078,11.70221 l 5.17075,-4.01937 c 0.87923,-0.69082 2.36556,-2.05155 3.28666,-2.76331 4.18684,-3.22386 8.58302,-5.14981 17.22883,2.19809 1.84221,1.57006 3.57975,0.71176 3.45414,-1.69567 l -0.33494,-8.60395 c 0.62802,0.27215 1.31885,0.41869 2.00968,0.37682 l 20.41083,-1.04671 c 1.98874,-0.10467 3.57974,-1.50726 3.66348,-3.26573 l 3.3704,-53.42404 -1.52819,-0.8583 c -3.07733,-2.05155 -2.42837,-6.384925 0.23027,-8.645817 l 0.87924,-0.732696 z"
     id="path6"
     style="stroke-width:2.09342" />
  <g
     id="g12"
     style="stroke:#111111;stroke-opacity:0.0666667"
     transform="matrix(2.0934183,0,0,2.0934183,-15.847177,-11.430064)">
    <path
       class="d"
       d="m 15.05,50.15 c -0.15,0 -0.3,-0.02 -0.44,-0.07 -0.54,-0.18 -0.96,-0.62 -1.04,-1.19 -0.42,-2.98 -0.68,-6.11 -0.8,-9.31 -0.11,-3.16 -0.17,-6.41 -0.17,-9.66 0,-3.25 0.03,-6.57 0.08,-9.85 0.06,-3.26 0.05,-6.54 -0.03,-9.77 0,-0.35 0.11,-0.69 0.32,-0.96 0.07,-0.12 0.17,-0.24 0.28,-0.35 0.19,-0.2 0.44,-0.33 0.7,-0.4 1.12,-0.28 2.31,-0.47 3.52,-0.57 0.99,-0.08 2,-0.12 3,-0.12 h 0.59 c 1.17,0.02 2.32,0.05 3.47,0.09 0.55,0.02 1.1,0.03 1.64,0.03 0.54,0 1.07,0 1.59,-0.03 0.02,0 0.03,0 0.05,0 0.12,0 0.25,0.01 0.36,0.04 1.4,0.35 2.75,1.04 4.01,2.04 1.23,0.98 2.24,2.1 3,3.32 0.86,1.32 1.59,2.74 2.16,4.19 0.56,1.41 1.02,2.91 1.37,4.45 0.21,0.67 0.34,1.35 0.41,2.01 0.06,0.6 0.11,1.2 0.14,1.81 0,0.05 0,0.11 0,0.16 -0.07,1.75 -0.14,3.51 -0.2,5.28 -0.06,1.84 -0.26,3.69 -0.61,5.48 v 0 c -0.03,0.14 -0.08,0.28 -0.14,0.41 -0.78,2.28 -1.85,4.47 -3.18,6.51 -1.31,2.01 -2.7,3.94 -4.15,5.72 -0.27,0.34 -0.68,0.54 -1.12,0.56 -2.46,0.08 -4.98,0.12 -7.48,0.14 -2.43,0.02 -4.79,0.03 -7.08,0.03 -0.09,0.02 -0.18,0.02 -0.26,0.02 z m 8.8,-14.84 c 0.7,-0.04 1.37,-0.09 2.01,-0.16 0.04,0 0.08,0 0.12,0 0.11,-0.06 0.24,-0.12 0.36,-0.17 0.21,-0.14 0.39,-0.29 0.55,-0.47 0.23,-0.26 0.45,-0.54 0.63,-0.82 0.53,-0.81 0.92,-1.73 1.16,-2.71 0.23,-0.93 0.21,-1.99 -0.04,-3.14 -0.11,-0.56 -0.24,-1.13 -0.38,-1.73 -0.12,-0.5 -0.3,-0.99 -0.53,-1.44 -0.21,-0.42 -0.47,-0.8 -0.78,-1.12 C 26.73,23.32 26.46,23.14 26.11,23 25.57,22.94 24.98,22.91 24.35,22.89 h -0.2 c -0.17,0 -0.33,0 -0.49,0.01 0.03,0.69 0.05,1.41 0.05,2.16 0,1.17 -0.02,2.39 -0.06,3.66 -0.04,1.24 -0.06,2.49 -0.06,3.76 0,0.96 0.02,1.91 0.06,2.84 0.02,0 0.18,0 0.18,0 z"
       id="path8"
       style="stroke:#111111;stroke-opacity:0.0666667" />
    <path
       class="c"
       d="m 20.47,9.4 c 0.19,0 0.38,0 0.57,0 1.16,0.02 2.3,0.05 3.44,0.08 0.57,0.02 1.13,0.03 1.69,0.03 0.56,0 1.1,0 1.65,-0.03 1.19,0.3 2.34,0.89 3.44,1.76 1.1,0.88 1.99,1.86 2.66,2.94 0.82,1.27 1.5,2.58 2.04,3.95 0.54,1.36 0.98,2.79 1.32,4.28 0.19,0.6 0.31,1.19 0.36,1.76 0.05,0.57 0.1,1.17 0.14,1.76 -0.08,1.75 -0.14,3.52 -0.2,5.29 -0.06,1.77 -0.25,3.52 -0.59,5.24 0,0.04 0,0.06 -0.03,0.06 -0.02,0 -0.03,0.02 -0.03,0.06 -0.75,2.2 -1.76,4.29 -3.05,6.27 -1.29,1.98 -2.64,3.85 -4.06,5.6 -2.46,0.08 -4.95,0.12 -7.45,0.14 -2.5,0.02 -4.93,0.03 -7.28,0.03 l -0.06,0.06 c -0.41,-2.95 -0.67,-6 -0.78,-9.16 -0.11,-3.15 -0.17,-6.36 -0.17,-9.6 0,-3.24 0.03,-6.52 0.08,-9.83 0.06,-3.3 0.05,-6.58 -0.03,-9.83 0.04,-0.04 0.06,-0.07 0.08,-0.11 0.02,-0.04 0.05,-0.07 0.08,-0.11 1.04,-0.26 2.14,-0.44 3.28,-0.53 0.95,-0.08 1.91,-0.12 2.87,-0.12 m 3.26,27.42 c 0.06,0 0.13,0 0.19,0 0.73,-0.04 1.43,-0.09 2.1,-0.17 0.05,0.01 0.11,0.02 0.16,0.02 0.13,0 0.24,-0.03 0.35,-0.1 0.15,-0.09 0.32,-0.18 0.5,-0.25 0.37,-0.22 0.7,-0.5 0.98,-0.81 0.28,-0.32 0.53,-0.64 0.76,-0.98 0.63,-0.97 1.09,-2.04 1.37,-3.19 0.28,-1.16 0.27,-2.43 -0.03,-3.81 C 29.97,26.96 29.84,26.37 29.69,25.76 29.54,25.14 29.33,24.56 29.05,24 28.77,23.44 28.42,22.95 28.01,22.52 27.6,22.09 27.08,21.76 26.44,21.54 25.8,21.47 25.11,21.42 24.37,21.4 c -0.08,0 -0.16,0 -0.24,0 -0.66,0 -1.29,0.07 -1.89,0.2 h -0.17 v 0.22 c 0.07,1.01 0.11,2.09 0.11,3.25 0,1.16 -0.02,2.36 -0.06,3.61 -0.04,1.25 -0.06,2.52 -0.06,3.81 0,1.29 0.04,2.57 0.11,3.84 0.37,0.34 0.88,0.51 1.51,0.51 M 20.42,6.42 c -1.04,0 -2.09,0.04 -3.12,0.13 -1.29,0.11 -2.56,0.31 -3.76,0.61 -0.53,0.13 -1.02,0.41 -1.41,0.8 -0.16,0.16 -0.31,0.34 -0.43,0.53 -0.4,0.54 -0.62,1.19 -0.6,1.87 0.07,3.21 0.08,6.47 0.03,9.71 -0.06,3.3 -0.08,6.62 -0.08,9.88 0,3.26 0.06,6.53 0.17,9.71 0.12,3.25 0.39,6.43 0.81,9.46 0.16,1.13 0.95,2.08 2.03,2.43 0.31,0.1 0.63,0.15 0.94,0.15 0.2,0 0.39,-0.02 0.58,-0.06 2.19,0 4.45,-0.01 6.78,-0.03 2.51,-0.02 5.04,-0.07 7.52,-0.14 0.87,-0.03 1.69,-0.43 2.24,-1.11 1.48,-1.83 2.91,-3.8 4.24,-5.85 1.37,-2.1 2.47,-4.35 3.29,-6.69 0.13,-0.26 0.22,-0.55 0.27,-0.85 0.35,-1.84 0.56,-3.73 0.62,-5.63 0.06,-1.76 0.12,-3.51 0.2,-5.26 0,-0.11 0,-0.21 0,-0.32 C 40.7,25.13 40.65,24.51 40.59,23.9 40.52,23.16 40.37,22.41 40.14,21.65 39.77,20.05 39.29,18.5 38.71,17.03 38.1,15.5 37.33,14.01 36.41,12.58 35.56,11.22 34.45,9.98 33.09,8.9 31.65,7.76 30.11,6.97 28.5,6.57 28.26,6.51 28.02,6.48 27.77,6.48 c -0.03,0 -0.07,0 -0.1,0 -0.51,0.02 -1.02,0.03 -1.54,0.03 -0.52,0 -1.05,0 -1.59,-0.03 -1.15,-0.04 -2.32,-0.07 -3.49,-0.09 -0.21,0 -0.41,0 -0.62,0 v 0 z m 4.65,27.33 c 0,-0.41 -0.01,-0.83 -0.01,-1.25 0,-1.26 0.02,-2.51 0.05,-3.72 0.04,-1.3 0.06,-2.55 0.06,-3.7 0,-0.21 0,-0.42 0,-0.63 0.17,0.01 0.34,0.02 0.5,0.04 0.06,0.04 0.12,0.08 0.16,0.12 0.2,0.21 0.37,0.46 0.52,0.75 0.18,0.35 0.31,0.73 0.41,1.13 0.14,0.59 0.26,1.13 0.37,1.64 0.21,0.97 0.22,1.8 0.05,2.51 -0.2,0.83 -0.52,1.57 -0.97,2.26 -0.13,0.2 -0.3,0.42 -0.49,0.63 -0.05,0.05 -0.1,0.1 -0.16,0.15 l -0.04,0.02 c -0.15,0.02 -0.3,0.03 -0.45,0.04 v 0 z"
       id="path10"
       style="stroke:#111111;stroke-opacity:0.0666667" />
  </g>
  <g
     id="g18"
     style="stroke:#111111;stroke-opacity:0.0666667"
     transform="matrix(2.0934183,0,0,2.0934183,-15.847177,-11.430064)">
    <path
       class="d"
       d="m 64.65,50.52 c -0.79,0 -1.68,-0.05 -2.72,-0.15 -0.91,-0.09 -1.73,-0.13 -2.43,-0.13 -0.59,0 -1.13,-0.35 -1.37,-0.89 -1.2,-2.7 -2.43,-5.39 -3.66,-8.01 -0.68,-1.44 -1.3,-2.87 -1.87,-4.26 -0.01,0.69 -0.02,1.41 -0.03,2.15 -0.02,1.67 -0.03,3.29 -0.03,4.85 v 2.49 c 0,0.77 0.02,1.46 0.05,2.07 0.04,0.71 -0.42,1.35 -1.1,1.54 -0.49,0.13 -1,0.23 -1.49,0.27 -0.46,0.04 -0.91,0.06 -1.37,0.06 -0.95,0 -1.92,-0.06 -2.9,-0.18 -0.85,-0.1 -1.68,-0.16 -2.48,-0.16 -0.8,0 -1.5,-0.67 -1.5,-1.5 v -3.92 c 0,-3.53 -0.03,-6.93 -0.08,-10.11 -0.06,-3.19 -0.08,-6.59 -0.08,-10.11 0,-2.6 0.04,-5.19 0.11,-7.69 0.08,-2.54 0.21,-5.04 0.4,-7.44 0.05,-0.67 0.54,-1.22 1.2,-1.35 0.42,-0.08 0.88,-0.15 1.36,-0.19 0.48,-0.04 0.96,-0.06 1.45,-0.06 0.23,0 0.62,0 1.17,0.03 0.56,0.02 1.12,0.06 1.68,0.12 0.57,0.06 1.07,0.13 1.49,0.21 1.01,0.19 1.6,0.63 1.76,1.3 0.22,0.56 0.43,1.03 0.61,1.41 l 0.64,1.29 c 0.21,0.42 0.44,0.88 0.68,1.39 0.25,0.52 0.55,1.19 0.9,1.99 0.08,0.21 0.23,0.52 0.47,0.98 0.26,0.53 0.57,1.14 0.9,1.84 l 0.82,1.69 c -0.01,-0.6 -0.03,-1.19 -0.06,-1.75 -0.06,-1.31 -0.09,-2.66 -0.09,-4.01 0,-0.79 0,-1.6 0.03,-2.42 0.02,-0.81 0.05,-1.68 0.08,-2.63 0.03,-0.7 0.54,-1.29 1.24,-1.42 1.35,-0.24 2.79,-0.36 4.29,-0.36 1.5,0 2.83,0.12 4,0.37 0.7,0.14 1.2,0.76 1.2,1.47 v 18.05 c 0.04,1.54 0.06,3.14 0.06,4.76 v 4.82 c 0,1.09 0,2.15 -0.03,3.16 -0.02,1 -0.03,2.02 -0.03,3.05 0,0.73 0,1.47 0.03,2.2 0.02,0.76 0.03,1.52 0.03,2.28 v 1.12 c 0,0.57 -0.32,1.09 -0.84,1.34 -0.17,0.08 -0.38,0.16 -0.75,0.26 -0.41,0.12 -0.97,0.17 -1.76,0.17 z"
       id="path14"
       style="stroke:#111111;stroke-opacity:0.0666667" />
    <path
       class="c"
       d="m 62.74,8.98 c 1.38,0 2.61,0.11 3.7,0.34 v 18.03 c 0.04,1.57 0.06,3.16 0.06,4.76 v 4.82 c 0,1.08 0,2.13 -0.03,3.14 -0.02,1.01 -0.03,2.04 -0.03,3.08 0,0.75 0,1.49 0.03,2.24 0.02,0.75 0.03,1.49 0.03,2.24 v 1.12 c -0.08,0.04 -0.24,0.09 -0.5,0.17 -0.26,0.07 -0.71,0.11 -1.34,0.11 -0.75,0 -1.61,-0.05 -2.58,-0.14 -0.97,-0.09 -1.83,-0.14 -2.58,-0.14 -1.23,-2.76 -2.46,-5.44 -3.67,-8.04 -1.21,-2.59 -2.25,-5.09 -3.11,-7.48 l -0.56,-1.68 c -0.15,-0.41 -0.29,-0.79 -0.42,-1.15 -0.13,-0.35 -0.23,-0.53 -0.31,-0.53 -0.04,0 -0.08,0.45 -0.14,1.34 -0.06,0.9 -0.1,2.04 -0.14,3.42 -0.04,1.38 -0.07,2.91 -0.08,4.59 -0.02,1.68 -0.03,3.3 -0.03,4.87 v 2.49 c 0,0.8 0.02,1.52 0.06,2.16 -0.41,0.11 -0.82,0.19 -1.23,0.22 -0.41,0.04 -0.82,0.06 -1.23,0.06 -0.9,0 -1.8,-0.06 -2.72,-0.17 -0.92,-0.11 -1.8,-0.17 -2.66,-0.17 v -3.92 c 0,-3.55 -0.03,-6.92 -0.08,-10.14 -0.06,-3.21 -0.08,-6.57 -0.08,-10.08 0,-2.58 0.04,-5.12 0.11,-7.64 0.07,-2.52 0.21,-4.97 0.39,-7.36 0.37,-0.07 0.77,-0.13 1.2,-0.17 0.43,-0.04 0.87,-0.06 1.32,-0.06 0.22,0 0.6,0 1.12,0.03 0.52,0.02 1.04,0.06 1.57,0.11 0.52,0.06 0.98,0.12 1.37,0.2 0.39,0.08 0.59,0.15 0.59,0.22 0.26,0.67 0.5,1.23 0.73,1.68 0.22,0.45 0.44,0.88 0.64,1.29 0.2,0.41 0.43,0.87 0.67,1.37 0.24,0.5 0.53,1.15 0.87,1.93 0.07,0.19 0.24,0.54 0.5,1.06 0.26,0.52 0.56,1.13 0.9,1.82 0.34,0.69 0.69,1.42 1.06,2.18 0.37,0.77 0.72,1.46 1.04,2.07 0.32,0.62 0.59,1.14 0.81,1.57 0.22,0.43 0.35,0.64 0.39,0.64 0.11,-0.07 0.2,-0.45 0.28,-1.12 0.07,-0.67 0.11,-1.32 0.11,-1.96 0,-1.49 -0.03,-2.88 -0.08,-4.17 -0.06,-1.29 -0.08,-2.6 -0.08,-3.95 0,-0.78 0,-1.58 0.03,-2.38 0.02,-0.8 0.05,-1.67 0.08,-2.6 1.27,-0.22 2.61,-0.34 4.03,-0.34 m 0,-3 c -1.59,0 -3.12,0.13 -4.55,0.38 -1.39,0.25 -2.42,1.42 -2.47,2.83 -0.04,0.95 -0.07,1.84 -0.09,2.66 -0.01,0.43 -0.02,0.85 -0.02,1.27 -0.03,-0.07 -0.07,-0.14 -0.1,-0.21 -0.25,-0.52 -0.48,-0.99 -0.69,-1.41 L 54.51,10.84 54.18,10.18 C 54.01,9.84 53.81,9.39 53.6,8.85 53.32,8.03 52.6,7.03 50.75,6.68 50.28,6.59 49.73,6.51 49.14,6.45 48.55,6.39 47.95,6.34 47.36,6.32 46.78,6.3 46.37,6.29 46.13,6.29 c -0.52,0 -1.05,0.02 -1.57,0.07 -0.55,0.05 -1.06,0.12 -1.54,0.22 -1.32,0.26 -2.3,1.37 -2.4,2.71 -0.19,2.42 -0.32,4.95 -0.4,7.51 -0.08,2.52 -0.11,5.12 -0.11,7.73 0,3.52 0.03,6.93 0.08,10.13 0.06,3.17 0.08,6.56 0.08,10.08 v 3.92 c 0,1.66 1.34,3 3,3 0.73,0 1.51,0.05 2.29,0.15 1.04,0.13 2.07,0.19 3.08,0.19 0.49,0 1,-0.02 1.5,-0.07 0.59,-0.05 1.18,-0.16 1.75,-0.32 1.37,-0.37 2.29,-1.66 2.2,-3.07 -0.03,-0.56 -0.05,-1.23 -0.05,-1.98 v -2.61 c 0.91,1.97 1.82,3.98 2.72,5.98 0.48,1.08 1.56,1.78 2.74,1.78 0.65,0 1.42,0.04 2.29,0.13 1.09,0.1 2.02,0.15 2.86,0.15 0.94,0 1.61,-0.07 2.16,-0.23 0.48,-0.14 0.76,-0.24 1.01,-0.36 1.02,-0.51 1.67,-1.55 1.67,-2.69 v -1.12 c 0,-0.77 0,-1.54 -0.03,-2.31 -0.02,-0.72 -0.03,-1.44 -0.03,-2.16 0,-1.03 0,-2.03 0.03,-3.02 0.02,-1.03 0.03,-2.09 0.03,-3.19 v -4.82 c 0,-1.59 -0.02,-3.2 -0.06,-4.79 V 9.32 c 0,-1.42 -1,-2.65 -2.39,-2.94 -1.28,-0.26 -2.72,-0.4 -4.31,-0.4 v 0 z"
       id="path16"
       style="stroke:#111111;stroke-opacity:0.0666667" />
  </g>
  <g
     id="g24"
     style="stroke:#111111;stroke-opacity:0.0666667"
     transform="matrix(2.0934183,0,0,2.0934183,-15.847177,-11.430064)">
    <path
       class="d"
       d="m 85.13,50.53 c -0.17,0 -0.33,0 -0.5,0 C 82.85,50.49 81.06,50.17 79.3,49.59 77.53,49 75.92,48.16 74.52,47.09 73.09,45.99 71.93,44.63 71.08,43.05 70.2,41.41 69.83,39.53 69.95,37.46 v -0.24 c 0,-0.75 0.55,-1.38 1.29,-1.49 0.94,-0.13 1.94,-0.2 3,-0.2 0.52,0 1.06,0.02 1.61,0.05 1.08,0.06 2.1,0.1 3.04,0.1 0.37,0 0.73,0 1.08,-0.01 0.02,0 0.03,0 0.04,0 0.79,0 1.45,0.61 1.5,1.41 0.06,0.94 0.44,1.32 0.77,1.54 0.6,0.41 1.21,0.61 1.86,0.61 0.71,-0.01 1.22,-0.21 1.68,-0.61 0.11,-0.1 0.46,-0.4 0.26,-1.53 C 86,36.47 85.82,36.06 85.51,35.76 85.08,35.34 84.56,35 83.96,34.74 83.3,34.45 82.57,34.23 81.79,34.09 l -2.52,-0.48 c -0.89,-0.18 -1.73,-0.47 -2.49,-0.88 -0.73,-0.39 -1.41,-0.84 -2.01,-1.36 -1.98,-1.89 -3.24,-3.96 -3.81,-6.2 -0.56,-2.21 -0.59,-4.39 -0.09,-6.49 0.5,-2.08 1.46,-4 2.85,-5.7 1.4,-1.72 3.13,-3.01 5.15,-3.85 1.02,-0.42 2.15,-0.71 3.36,-0.86 0.81,-0.1 1.64,-0.15 2.47,-0.15 0.35,0 0.71,0 1.06,0.03 1.19,0.06 2.38,0.24 3.53,0.52 1.15,0.28 2.23,0.65 3.21,1.1 2.12,1.11 3.73,2.71 4.84,4.8 1.13,2.13 1.41,4.79 0.82,7.92 -0.13,0.68 -0.71,1.18 -1.39,1.22 -1.34,0.22 -2.78,0.36 -4.28,0.42 -0.21,0 -0.42,0.01 -0.63,0.01 -1.41,0 -2.77,-0.18 -4.03,-0.54 -0.76,-0.22 -1.22,-0.99 -1.05,-1.77 0.14,-0.65 -0.03,-0.94 -0.24,-1.17 -0.42,-0.45 -0.92,-0.72 -1.51,-0.85 -0.2,-0.04 -0.39,-0.06 -0.58,-0.06 -0.38,0 -0.74,0.08 -1.11,0.24 -0.26,0.12 -0.51,0.31 -0.61,0.97 0,0.07 -0.02,0.14 -0.04,0.2 -0.03,0.09 -0.04,0.16 -0.03,0.22 0.01,0.17 0.03,0.34 0.05,0.52 0.23,0.61 0.5,0.73 0.6,0.78 0.54,0.24 1.14,0.41 1.79,0.5 2.14,0.24 4.21,0.95 6.09,2.11 1.86,1.14 3.4,2.61 4.6,4.37 0.76,0.98 1.34,2.04 1.72,3.17 0.38,1.12 0.6,2.28 0.67,3.45 0.06,1.16 -0.02,2.35 -0.25,3.53 -0.23,1.18 -0.6,2.32 -1.09,3.4 -0.48,1.24 -1.18,2.39 -2.04,3.35 -0.85,0.94 -1.84,1.72 -2.94,2.32 -1.07,0.59 -2.24,1.02 -3.48,1.3 -1.05,0.23 -2.15,0.35 -3.26,0.35 z"
       id="path20"
       style="stroke:#111111;stroke-opacity:0.0666667" />
    <path
       class="c"
       d="m 84.73,9.6 c 0.33,0 0.66,0 0.99,0.03 1.1,0.06 2.18,0.22 3.25,0.48 1.06,0.26 2.04,0.6 2.94,1.01 1.79,0.93 3.17,2.32 4.14,4.14 0.97,1.83 1.19,4.14 0.67,6.94 h -0.06 c -1.31,0.22 -2.71,0.36 -4.2,0.42 -0.19,0 -0.39,0.01 -0.58,0.01 -1.28,0 -2.49,-0.16 -3.62,-0.49 0.22,-1.01 0.02,-1.85 -0.62,-2.52 -0.64,-0.67 -1.4,-1.1 -2.3,-1.29 -0.3,-0.06 -0.59,-0.09 -0.89,-0.09 -0.59,0 -1.16,0.12 -1.72,0.37 -0.84,0.37 -1.34,1.08 -1.48,2.13 -0.08,0.26 -0.1,0.51 -0.08,0.76 0.02,0.24 0.05,0.5 0.08,0.76 0.3,0.9 0.78,1.49 1.46,1.79 0.67,0.3 1.4,0.5 2.18,0.62 1.98,0.22 3.82,0.86 5.52,1.9 1.7,1.04 3.09,2.37 4.17,3.98 0.67,0.86 1.18,1.78 1.51,2.77 0.33,0.99 0.53,2.01 0.59,3.05 0.06,1.05 -0.02,2.1 -0.22,3.16 -0.21,1.06 -0.53,2.08 -0.98,3.05 -0.45,1.16 -1.05,2.15 -1.79,2.97 -0.75,0.82 -1.6,1.49 -2.55,2.02 -0.95,0.52 -1.98,0.91 -3.08,1.15 -0.96,0.21 -1.94,0.32 -2.93,0.32 -0.15,0 -0.3,0 -0.45,0 -1.64,-0.04 -3.28,-0.33 -4.9,-0.87 -1.62,-0.54 -3.07,-1.3 -4.34,-2.27 -1.27,-0.97 -2.28,-2.16 -3.02,-3.56 -0.75,-1.4 -1.06,-3 -0.95,-4.79 v -0.34 c 0.87,-0.12 1.8,-0.19 2.79,-0.19 0.49,0 1,0.02 1.53,0.05 1.12,0.07 2.16,0.1 3.13,0.1 0.39,0 0.76,0 1.13,-0.02 0.07,1.2 0.55,2.09 1.43,2.69 0.85,0.58 1.75,0.87 2.71,0.87 0.03,0 0.06,0 0.09,0 0.99,-0.02 1.85,-0.34 2.58,-0.98 0.73,-0.64 0.98,-1.61 0.76,-2.91 -0.11,-0.9 -0.45,-1.61 -1.01,-2.16 C 86.05,34.12 85.39,33.68 84.62,33.34 83.85,33 83.02,32.75 82.13,32.58 81.24,32.41 80.39,32.25 79.61,32.1 78.86,31.95 78.17,31.71 77.54,31.37 76.9,31.03 76.33,30.64 75.8,30.19 c -1.72,-1.64 -2.83,-3.45 -3.33,-5.43 -0.5,-1.98 -0.53,-3.9 -0.08,-5.77 0.45,-1.87 1.3,-3.56 2.55,-5.1 1.25,-1.53 2.77,-2.67 4.56,-3.42 0.9,-0.37 1.88,-0.62 2.97,-0.76 0.76,-0.09 1.52,-0.14 2.29,-0.14 m 0,-3 c -0.88,0 -1.78,0.05 -2.65,0.16 -1.35,0.16 -2.62,0.49 -3.76,0.96 -2.25,0.94 -4.17,2.38 -5.73,4.29 -1.53,1.87 -2.59,3.99 -3.14,6.29 -0.56,2.34 -0.53,4.76 0.09,7.21 0.64,2.52 2.04,4.83 4.17,6.86 0.04,0.04 0.08,0.07 0.12,0.11 0.69,0.59 1.46,1.11 2.29,1.55 0.03,0.02 0.07,0.04 0.1,0.05 -0.08,0 -0.17,0 -0.26,-0.01 -0.58,-0.03 -1.15,-0.05 -1.71,-0.05 -1.12,0 -2.2,0.07 -3.21,0.22 -1.48,0.21 -2.58,1.48 -2.58,2.97 v 0.25 c -0.13,2.31 0.31,4.43 1.31,6.29 0.95,1.78 2.24,3.3 3.85,4.53 1.52,1.17 3.28,2.09 5.21,2.73 1.9,0.63 3.84,0.98 5.78,1.02 0.16,0 0.34,0 0.52,0 1.22,0 2.42,-0.13 3.58,-0.39 1.38,-0.3 2.68,-0.79 3.88,-1.45 1.24,-0.68 2.36,-1.56 3.32,-2.63 0.97,-1.07 1.76,-2.35 2.33,-3.81 0.53,-1.16 0.92,-2.39 1.16,-3.65 0.25,-1.3 0.34,-2.61 0.27,-3.89 -0.07,-1.31 -0.32,-2.61 -0.74,-3.86 -0.43,-1.27 -1.08,-2.47 -1.92,-3.57 -0.83,-1.21 -1.81,-2.3 -2.93,-3.25 1,-0.08 1.97,-0.19 2.89,-0.34 1.33,-0.12 2.44,-1.1 2.69,-2.44 0.65,-3.47 0.32,-6.46 -0.97,-8.9 C 97.46,11.45 95.64,9.64 93.31,8.42 93.26,8.4 93.22,8.37 93.17,8.35 92.11,7.86 90.94,7.46 89.7,7.16 88.45,6.85 87.17,6.67 85.89,6.6 85.51,6.58 85.13,6.57 84.75,6.57 v 0 z m -0.51,14.67 c 0.08,-0.02 0.17,-0.03 0.25,-0.03 0.09,0 0.18,0.01 0.27,0.03 0.23,0.05 0.41,0.13 0.58,0.28 0,0.05 -0.02,0.09 -0.03,0.14 v 0 c -0.4,-0.06 -0.77,-0.15 -1.1,-0.28 0.01,-0.05 0.02,-0.09 0.03,-0.14 z m -0.02,16.44 c -0.25,0 -0.59,-0.04 -1.05,-0.35 -0.04,-0.03 -0.1,-0.07 -0.12,-0.39 -0.03,-0.4 -0.13,-0.79 -0.3,-1.13 0.23,0.08 0.45,0.16 0.66,0.25 0.44,0.19 0.8,0.43 1.11,0.73 0.07,0.07 0.11,0.3 0.12,0.37 0,0.05 0.01,0.09 0.02,0.14 0.02,0.12 0.03,0.21 0.03,0.28 -0.12,0.06 -0.26,0.1 -0.47,0.1 z"
       id="path22"
       style="stroke:#111111;stroke-opacity:0.0666667" />
  </g>
  <g
     id="g52"
     transform="matrix(2.0934183,0,0,2.0934183,-15.847177,-11.430064)">
    <g
       id="g32">
      <path
         class="b"
         d="m 16.56,88.06 c -0.52,0 -1.01,-0.27 -1.28,-0.73 -0.21,-0.35 -0.33,-0.81 -0.4,-1.51 -0.05,-0.51 -0.06,-0.98 -0.03,-1.42 v -2.05 l 0.04,-3.89 c 0,-4.73 -0.1,-9.42 -0.29,-13.96 l -1.58,0.04 c -1.2,0 -2.01,-0.09 -2.61,-0.29 C 10.03,64.12 9.72,63.85 9.54,63.5 9.38,63.18 9.26,62.74 9.17,61.52 9.11,60.71 9.08,59.79 9.08,58.79 c 0,-1.44 0.02,-2.51 0.04,-3.16 0.04,-0.8 0.7,-1.43 1.5,-1.43 h 1.85 l 1.64,-0.04 h 2.45 l 2.48,-0.04 c 4.28,0 7.82,0.16 10.55,0.47 h 0.47 c 0.79,0 1.45,0.62 1.5,1.41 0.06,1 0.09,1.96 0.09,2.84 0,1.73 -0.11,3.31 -0.32,4.7 -0.06,0.4 -0.28,0.76 -0.61,1 -0.26,0.18 -0.56,0.28 -0.87,0.28 -0.09,0 -0.18,0 -0.27,-0.02 -1.06,-0.19 -1.66,-0.23 -1.97,-0.23 L 25.9,64.53 c 0,0.31 -0.01,0.69 -0.01,1.16 0,2.52 0.1,9.37 0.3,20.35 0.01,0.74 -0.52,1.38 -1.25,1.51 -0.92,0.16 -1.98,0.24 -3.18,0.24 h -1.25 c -1.34,0 -2.59,0.09 -3.71,0.28 -0.08,0.01 -0.16,0.02 -0.25,0.02 z"
         id="path28" />
      <path
         class="c"
         d="m 19.05,55.6 c 4.27,0 7.75,0.16 10.45,0.47 h 0.56 c 0.06,0.97 0.09,1.89 0.09,2.75 0,1.66 -0.1,3.15 -0.3,4.47 -0.95,-0.17 -1.69,-0.26 -2.24,-0.26 l -2.02,-0.04 c -0.75,0 -1.12,0.04 -1.12,0.13 -0.06,0.4 -0.09,1.25 -0.09,2.54 0,2.52 0.1,9.32 0.3,20.38 -0.83,0.14 -1.81,0.21 -2.92,0.21 h -1.25 c -1.43,0 -2.75,0.1 -3.96,0.3 -0.09,-0.14 -0.15,-0.44 -0.19,-0.88 -0.04,-0.44 -0.05,-0.85 -0.02,-1.23 v -2.11 l 0.04,-3.87 c 0,-5.22 -0.11,-10.3 -0.34,-15.26 -0.32,-0.14 -0.76,-0.21 -1.33,-0.21 l -1.72,0.04 c -0.97,0 -1.68,-0.07 -2.11,-0.21 -0.09,-0.17 -0.16,-0.65 -0.21,-1.42 -0.06,-0.77 -0.09,-1.65 -0.09,-2.62 0,-1.43 0.01,-2.47 0.04,-3.1 h 1.85 l 1.68,-0.04 h 2.41 l 2.49,-0.04 m 0,-3 H 19 l -2.47,0.04 h -2.38 c 0,0 -0.05,0 -0.08,0 l -1.64,0.04 h -1.81 c -1.6,0 -2.93,1.26 -3,2.87 -0.03,0.69 -0.05,1.75 -0.05,3.23 0,1.04 0.03,2 0.09,2.84 0.1,1.29 0.23,1.95 0.52,2.53 0.36,0.71 0.98,1.26 1.74,1.51 0.75,0.25 1.73,0.37 3.06,0.37 0.02,0 0.05,0 0.07,0 h 0.09 c 0.15,4.06 0.23,8.23 0.23,12.44 l -0.04,3.84 v 2.04 c -0.03,0.51 -0.02,1.05 0.04,1.62 0.09,0.94 0.27,1.58 0.61,2.14 0.55,0.91 1.53,1.45 2.57,1.45 0.16,0 0.33,-0.01 0.49,-0.04 1.04,-0.17 2.2,-0.26 3.46,-0.26 h 1.25 c 1.28,0 2.43,-0.09 3.43,-0.26 1.46,-0.25 2.52,-1.53 2.49,-3.01 -0.19,-10.47 -0.29,-17.18 -0.3,-19.95 h 0.22 c 0.2,0 0.7,0.03 1.7,0.21 0.18,0.03 0.36,0.05 0.54,0.05 0.62,0 1.23,-0.19 1.74,-0.56 0.66,-0.47 1.1,-1.19 1.22,-1.99 0.22,-1.47 0.34,-3.12 0.34,-4.92 0,-0.91 -0.03,-1.9 -0.09,-2.93 -0.09,-1.59 -1.41,-2.82 -2.99,-2.82 H 29.66 C 26.88,52.77 23.31,52.61 19.04,52.61 v 0 z"
         id="path30" />
    </g>
    <g
       id="g38">
      <path
         class="b"
         d="m 43.27,88.49 c -0.71,0 -1.21,-0.02 -1.53,-0.05 -1.54,-0.12 -2.97,-0.48 -4.22,-1.05 -1.41,-0.64 -2.46,-1.61 -3.14,-2.88 -0.79,-1.49 -1.23,-3.34 -1.29,-5.52 l -0.08,-1.33 c -0.02,-0.11 -0.05,-0.48 -0.05,-1.51 -0.14,-2.27 -0.21,-4.58 -0.21,-6.75 0,-1.35 0.04,-2.71 0.13,-4.05 0.09,-1.54 0.37,-3.07 0.81,-4.53 0.47,-1.55 1.21,-2.93 2.2,-4.11 0.12,-0.15 0.27,-0.27 0.43,-0.36 l 0.95,-0.52 c 2.1,-1.02 4.34,-1.52 6.74,-1.52 1.51,0 2.96,0.2 4.31,0.6 1.39,0.41 2.62,1.02 3.68,1.81 0.04,0.03 0.08,0.06 0.11,0.09 1.2,1.1 1.98,2.18 2.38,3.31 0.37,0.98 0.64,2.01 0.8,3.02 0.1,1.02 0.15,1.98 0.15,2.94 l -0.05,0.86 v 0.69 c -0.06,1 -0.08,2.37 -0.08,4.17 0,2.1 -0.04,3.65 -0.13,4.77 L 55.05,78 c -0.16,2.52 -0.83,4.76 -1.99,6.6 -0.61,0.86 -1.44,1.55 -2.5,2.11 -0.95,0.51 -2.01,0.92 -3.14,1.24 -1.17,0.35 -2.57,0.53 -4.14,0.53 z M 42.42,78.2 c 0.13,0.27 0.3,0.46 0.52,0.6 0.27,0.16 0.54,0.24 0.84,0.24 0.24,0 0.5,-0.06 0.78,-0.19 0.27,-0.12 0.51,-0.3 0.71,-0.54 0.18,-0.24 0.23,-0.38 0.23,-0.38 v 0 c 0,0 0.05,-0.19 0.05,-0.79 0,-0.56 0.02,-0.96 0.05,-1.26 l 0.04,-0.49 0.04,-0.78 v -0.52 l 0.04,-0.9 v -1.98 l -0.09,-2.88 v -0.2 l -0.17,-2.18 c -0.04,-0.59 -0.18,-1.11 -0.41,-1.54 -0.16,-0.3 -0.34,-0.51 -0.54,-0.63 -0.03,0 -0.06,-0.01 -0.09,-0.01 -0.36,0 -0.72,0.12 -1.11,0.38 -0.15,0.14 -0.38,0.38 -0.65,0.83 -0.25,0.4 -0.44,0.81 -0.58,1.22 -0.25,1.14 -0.38,2.62 -0.38,4.42 0,0.84 0.01,1.49 0.03,1.95 0.12,0.63 0.21,1.41 0.27,2.39 l 0.04,0.59 c 0.11,1.4 0.25,2.21 0.36,2.67 z"
         id="path34" />
      <path
         class="c"
         d="m 44,55.81 c 1.38,0 2.67,0.18 3.89,0.54 1.22,0.36 2.29,0.88 3.2,1.57 1,0.92 1.66,1.82 1.98,2.71 0.34,0.92 0.59,1.83 0.73,2.75 0.09,0.89 0.13,1.79 0.13,2.71 l -0.04,0.77 v 0.77 c -0.06,0.95 -0.09,2.34 -0.09,4.17 0,2.04 -0.04,3.58 -0.13,4.64 l -0.13,1.42 c -0.14,2.32 -0.73,4.3 -1.76,5.93 -0.43,0.6 -1.08,1.13 -1.94,1.59 -0.86,0.46 -1.81,0.83 -2.84,1.12 -1.06,0.32 -2.31,0.47 -3.74,0.47 -0.66,0 -1.12,-0.02 -1.38,-0.04 -1.4,-0.12 -2.66,-0.42 -3.76,-0.92 -1.1,-0.5 -1.91,-1.24 -2.43,-2.21 C 35,82.51 34.63,80.89 34.57,78.94 l -0.09,-1.38 c -0.03,-0.23 -0.04,-0.7 -0.04,-1.42 -0.14,-2.35 -0.21,-4.6 -0.21,-6.75 0,-1.32 0.04,-2.64 0.13,-3.96 0.09,-1.43 0.34,-2.83 0.75,-4.19 0.42,-1.36 1.05,-2.56 1.91,-3.59 l 0.95,-0.52 c 1.83,-0.89 3.84,-1.33 6.02,-1.33 m -3.74,16.99 v -0.04 c 0.11,0.57 0.2,1.33 0.26,2.28 l 0.04,0.6 c 0.11,1.43 0.27,2.49 0.47,3.18 v -0.04 c 0.26,0.57 0.64,1.01 1.14,1.31 0.5,0.3 1.04,0.45 1.61,0.45 0.46,0 0.92,-0.11 1.4,-0.32 0.47,-0.22 0.88,-0.52 1.23,-0.92 0.29,-0.37 0.47,-0.69 0.54,-0.95 0.07,-0.26 0.11,-0.66 0.11,-1.2 0,-0.49 0.01,-0.84 0.04,-1.08 l 0.04,-0.56 0.04,-0.82 v -0.6 l 0.04,-0.82 V 71.2 L 47.12,68.28 V 68.07 L 46.95,65.83 C 46.89,65.03 46.7,64.32 46.37,63.7 46.04,63.08 45.62,62.65 45.1,62.39 44.87,62.3 44.64,62.26 44.41,62.26 c -0.69,0 -1.36,0.23 -2.02,0.69 -0.34,0.29 -0.68,0.7 -1.01,1.23 -0.33,0.53 -0.58,1.07 -0.75,1.61 -0.29,1.26 -0.43,2.87 -0.43,4.82 0,0.98 0.01,1.71 0.04,2.19 m 3.74,-19.99 c -2.62,0 -5.09,0.55 -7.33,1.63 -0.04,0.02 -0.09,0.04 -0.13,0.07 l -0.95,0.52 c -0.33,0.18 -0.63,0.42 -0.87,0.71 -1.11,1.34 -1.95,2.9 -2.48,4.63 -0.48,1.58 -0.78,3.23 -0.88,4.89 -0.09,1.36 -0.13,2.76 -0.13,4.14 0,2.18 0.07,4.48 0.21,6.84 0,0.9 0.03,1.33 0.05,1.59 l 0.08,1.25 c 0.08,2.38 0.57,4.45 1.47,6.13 0.83,1.56 2.12,2.76 3.84,3.54 1.4,0.64 2.99,1.03 4.72,1.18 0.25,0.02 0.69,0.06 1.65,0.06 1.7,0 3.24,-0.2 4.57,-0.59 1.23,-0.34 2.38,-0.8 3.42,-1.35 1.27,-0.67 2.26,-1.51 2.96,-2.49 0.03,-0.05 0.06,-0.09 0.09,-0.14 1.29,-2.05 2.04,-4.5 2.22,-7.3 l 0.13,-1.38 c 0.1,-1.18 0.14,-2.78 0.14,-4.92 0,-1.77 0.03,-3.11 0.08,-3.99 0,-0.06 0,-0.12 0,-0.18 v -0.69 l 0.04,-0.69 c 0,-0.06 0,-0.11 0,-0.17 0,-1.01 -0.05,-2.02 -0.14,-3 0,-0.06 -0.01,-0.12 -0.02,-0.18 -0.17,-1.11 -0.47,-2.22 -0.88,-3.32 -0.49,-1.36 -1.4,-2.63 -2.77,-3.89 -0.07,-0.07 -0.15,-0.13 -0.23,-0.19 -1.2,-0.9 -2.6,-1.59 -4.16,-2.05 -1.49,-0.44 -3.08,-0.66 -4.74,-0.66 v 0 z m -0.46,13.77 c 0.1,-0.27 0.23,-0.55 0.4,-0.82 0.01,0.09 0.02,0.18 0.03,0.28 l 0.16,2.13 v 0.1 c 0,0 0,0.06 0,0.09 l 0.08,2.88 v 1.94 l -0.04,0.74 c 0,0.05 0,0.1 0,0.16 v 0.52 l -0.04,0.7 -0.04,0.46 c -0.04,0.35 -0.06,0.78 -0.06,1.36 0,0.11 0,0.21 0,0.28 -0.03,0.03 -0.07,0.05 -0.11,0.07 -0.06,0.03 -0.1,0.04 -0.13,0.05 -0.08,-0.41 -0.17,-1.08 -0.26,-2.14 L 43.47,74.8 c -0.06,-0.95 -0.15,-1.76 -0.27,-2.43 -0.02,-0.42 -0.03,-1.02 -0.03,-1.78 0,-1.64 0.11,-3 0.33,-4.02 v 0 z"
         id="path36" />
    </g>
    <g
       id="g44">
      <path
         class="b"
         d="m 64.49,87.97 c -0.06,0 -0.12,0 -0.19,-0.01 -0.62,-0.08 -1.23,-0.12 -1.79,-0.12 -0.39,0 -0.95,0.03 -1.65,0.08 l -1.89,0.05 c -0.66,0 -1.38,-0.05 -2.18,-0.14 -0.45,-0.05 -0.85,-0.3 -1.09,-0.68 -0.24,-0.38 -0.3,-0.85 -0.16,-1.28 0.7,-2.09 2.04,-5.7 3.98,-10.73 l 1.59,-4.03 c -0.25,-0.92 -0.55,-1.84 -0.9,-2.74 -0.42,-1.08 -0.96,-2.38 -1.61,-3.88 -0.79,-1.97 -1.38,-3.46 -1.77,-4.5 -0.41,-1.08 -0.76,-2.24 -1.06,-3.43 -0.11,-0.46 0,-0.95 0.3,-1.32 0.29,-0.35 0.71,-0.55 1.16,-0.55 0.03,0 0.26,0 0.36,0 0.48,0 1.16,-0.04 2.03,-0.13 0.97,-0.12 1.67,-0.18 2.17,-0.18 1.26,0 2.34,0.25 3.23,0.75 0.36,0.2 0.62,0.55 0.72,0.95 0.25,1.02 0.63,2.31 1.15,3.83 0.03,0.08 0.05,0.16 0.08,0.24 1.3,-3.91 1.44,-4.17 1.52,-4.35 0.21,-0.41 0.59,-0.71 1.05,-0.8 1.66,-0.33 3.34,-0.5 4.98,-0.5 1.02,0 1.94,0.06 2.73,0.19 0.42,0.07 0.79,0.31 1.02,0.66 0.23,0.36 0.3,0.79 0.19,1.2 -0.7,2.63 -1.58,5.21 -2.6,7.65 -1.01,2.4 -2.39,5.46 -4.11,9.07 -1.37,2.79 -2.52,5.25 -3.42,7.33 -0.89,2.05 -1.7,4.17 -2.4,6.3 -0.2,0.62 -0.78,1.03 -1.42,1.03 z"
         id="path40" />
      <path
         class="c"
         d="m 61.78,55.9 c 1,0 1.83,0.19 2.49,0.56 0.26,1.06 0.65,2.38 1.18,3.96 0.53,1.58 1.04,2.98 1.53,4.21 0.14,-0.29 0.6,-1.59 1.38,-3.91 0.86,-2.58 1.35,-3.98 1.46,-4.21 1.58,-0.32 3.14,-0.47 4.69,-0.47 0.95,0 1.78,0.06 2.49,0.17 -0.69,2.58 -1.53,5.07 -2.54,7.46 -1,2.39 -2.37,5.4 -4.08,9.01 -1.38,2.81 -2.52,5.27 -3.44,7.37 -0.92,2.11 -1.73,4.25 -2.45,6.43 -0.69,-0.09 -1.35,-0.13 -1.98,-0.13 -0.43,0 -1.02,0.03 -1.76,0.09 l -1.81,0.04 c -0.57,0 -1.23,-0.04 -1.98,-0.13 0.69,-2.06 2.01,-5.62 3.96,-10.66 l 1.76,-4.47 c -0.29,-1.15 -0.65,-2.27 -1.07,-3.38 -0.43,-1.1 -0.98,-2.41 -1.63,-3.93 -0.77,-1.92 -1.35,-3.4 -1.74,-4.43 -0.39,-1.03 -0.72,-2.12 -1.01,-3.27 0.11,0 0.23,0 0.36,0 0.53,0 1.26,-0.05 2.18,-0.14 0.92,-0.11 1.59,-0.17 2.02,-0.17 m 0,-3 c -0.55,0 -1.3,0.06 -2.35,0.19 -0.99,0.1 -1.55,0.12 -1.84,0.12 -0.07,0 -0.14,0 -0.2,0 -0.05,0 -0.1,0 -0.16,0 -0.89,0 -1.74,0.4 -2.32,1.09 -0.6,0.73 -0.83,1.71 -0.6,2.63 0.31,1.25 0.69,2.46 1.11,3.59 0.39,1.05 0.99,2.56 1.77,4.5 0,0.02 0.02,0.05 0.03,0.07 0.64,1.48 1.18,2.77 1.59,3.83 0.27,0.69 0.51,1.4 0.71,2.11 l -1.4,3.55 c -1.96,5.07 -3.31,8.7 -4.01,10.82 -0.29,0.86 -0.17,1.8 0.32,2.56 0.49,0.76 1.29,1.27 2.19,1.37 0.87,0.1 1.63,0.15 2.32,0.15 0.02,0 0.05,0 0.07,0 l 1.81,-0.04 c 0.05,0 0.11,0 0.16,0 0.82,-0.06 1.29,-0.08 1.53,-0.08 0.5,0 1.04,0.04 1.61,0.11 0.13,0.02 0.25,0.02 0.37,0.02 1.28,0 2.44,-0.82 2.85,-2.06 0.68,-2.08 1.48,-4.16 2.35,-6.17 0.89,-2.05 2.03,-4.49 3.38,-7.25 1.75,-3.67 3.14,-6.74 4.16,-9.17 1.05,-2.51 1.95,-5.15 2.67,-7.85 0.22,-0.82 0.08,-1.7 -0.38,-2.41 -0.46,-0.71 -1.21,-1.19 -2.04,-1.33 -0.87,-0.14 -1.87,-0.21 -2.97,-0.21 -1.74,0 -3.52,0.18 -5.28,0.53 -0.91,0.18 -1.68,0.77 -2.09,1.6 -0.03,0.05 -0.05,0.1 -0.08,0.18 -0.25,-0.63 -0.71,-1.15 -1.31,-1.49 -1.11,-0.63 -2.45,-0.95 -3.97,-0.95 v 0 z"
         id="path42" />
    </g>
    <g
       id="g50">
      <path
         class="b"
         d="m 89.03,88.1 c -2.05,0 -4.08,-0.41 -6.01,-1.21 -1.99,-0.83 -3.64,-2.04 -4.88,-3.62 -1.32,-1.67 -1.92,-3.62 -1.78,-5.8 v -0.29 c 0,-0.73 0.52,-1.35 1.24,-1.48 0.91,-0.16 1.93,-0.24 3.01,-0.24 0.89,0 1.64,0.02 2.26,0.04 0.51,0.03 1.47,0.04 2.85,0.04 0.81,0 1.47,0.64 1.5,1.45 0.02,0.68 0.26,0.92 0.34,0.99 0.22,0.21 0.43,0.31 0.7,0.31 0.24,0 0.33,-0.07 0.4,-0.14 0.11,-0.11 0.12,-0.39 0.12,-0.51 0,-0.13 0,-0.24 -0.02,-0.31 -0.11,-0.79 -0.4,-1.03 -0.7,-1.18 -0.73,-0.37 -1.78,-0.68 -3.1,-0.95 l -0.65,-0.13 c -1.47,-0.27 -2.78,-0.89 -3.9,-1.83 -0.03,-0.02 -0.05,-0.05 -0.08,-0.07 -1.16,-1.13 -2.05,-2.37 -2.64,-3.69 -0.6,-1.34 -0.91,-2.7 -0.91,-4.05 0,-2.16 0.66,-4.22 1.96,-6.12 1.29,-1.88 3,-3.27 5.07,-4.13 1.3,-0.53 2.9,-0.8 4.74,-0.8 2.35,0 4.54,0.45 6.51,1.34 1.61,0.84 2.84,1.91 3.75,3.22 0.95,1.37 1.43,2.99 1.43,4.81 0,0.67 -0.09,1.5 -0.28,2.51 -0.13,0.71 -0.75,1.22 -1.47,1.22 H 98.1 c -1.23,0.2 -2.48,0.3 -3.69,0.3 -0.11,0 -0.22,0 -0.34,0 1.59,0.95 2.9,2.07 3.89,3.35 0.65,0.89 1.16,1.86 1.52,2.89 0.37,1.06 0.56,2.12 0.56,3.14 0,1.71 -0.38,3.38 -1.13,4.98 -0.87,1.88 -2.24,3.36 -4.05,4.4 -1.77,1.02 -3.73,1.53 -5.82,1.53 z M 88.11,65.43 c 0.09,0.21 0.16,0.27 0.16,0.27 0.22,0.13 0.51,0.22 0.86,0.28 h 0.08 c -0.02,-0.14 -0.01,-0.29 0.02,-0.45 0.03,-0.15 0.05,-0.27 0.06,-0.34 0,-0.2 -0.06,-0.33 -0.23,-0.47 -0.27,-0.24 -0.47,-0.27 -0.64,-0.27 -0.09,0 -0.13,0.02 -0.18,0.06 0,0 -0.03,0.08 -0.05,0.23 -0.01,0.11 -0.03,0.21 -0.07,0.32 -0.03,0.08 -0.04,0.14 -0.05,0.18 l 0.02,0.2 z"
         id="path46" />
      <path
         class="c"
         d="m 88.56,55.9 c 2.15,0 4.11,0.4 5.89,1.2 1.32,0.69 2.36,1.59 3.14,2.71 0.77,1.12 1.16,2.44 1.16,3.96 0,0.57 -0.09,1.32 -0.26,2.24 h -0.52 c -1.2,0.2 -2.39,0.3 -3.57,0.3 -1.4,0 -2.64,-0.16 -3.7,-0.47 0.06,-0.29 0.09,-0.49 0.09,-0.6 0,-0.66 -0.24,-1.2 -0.73,-1.63 -0.49,-0.43 -1.03,-0.64 -1.63,-0.64 -0.43,0 -0.81,0.14 -1.14,0.41 -0.33,0.27 -0.52,0.68 -0.58,1.23 -0.09,0.26 -0.13,0.49 -0.13,0.69 l 0.04,0.39 v 0.09 c 0.2,0.6 0.49,1.02 0.88,1.25 0.39,0.23 0.85,0.39 1.4,0.47 1.43,0.2 2.88,0.73 4.34,1.59 1.46,0.86 2.64,1.86 3.53,3.01 0.54,0.75 0.97,1.57 1.29,2.47 0.31,0.9 0.47,1.79 0.47,2.64 0,1.49 -0.33,2.94 -0.99,4.34 -0.75,1.61 -1.89,2.85 -3.44,3.74 -1.55,0.89 -3.24,1.33 -5.07,1.33 -1.83,0 -3.68,-0.37 -5.44,-1.1 -1.76,-0.73 -3.19,-1.79 -4.28,-3.16 -1.09,-1.38 -1.58,-2.97 -1.46,-4.77 V 77.2 c 0.83,-0.14 1.75,-0.21 2.75,-0.21 0.86,0 1.59,0.01 2.19,0.04 0.54,0.03 1.52,0.04 2.92,0.04 0.03,0.86 0.29,1.53 0.8,2.02 0.5,0.49 1.08,0.73 1.74,0.73 0.57,0 1.05,-0.19 1.44,-0.56 0.39,-0.37 0.58,-0.9 0.58,-1.59 0,-0.26 -0.01,-0.46 -0.04,-0.6 -0.14,-1.06 -0.65,-1.81 -1.5,-2.24 -0.86,-0.43 -2.02,-0.79 -3.48,-1.08 L 84.6,73.62 c -1.23,-0.23 -2.31,-0.73 -3.23,-1.5 -1.03,-1 -1.81,-2.08 -2.32,-3.23 -0.52,-1.15 -0.77,-2.29 -0.77,-3.44 0,-1.86 0.57,-3.62 1.7,-5.27 1.13,-1.65 2.6,-2.84 4.41,-3.59 1.12,-0.46 2.51,-0.69 4.17,-0.69 m 0,-3 c -2.04,0 -3.83,0.31 -5.31,0.91 -2.35,0.97 -4.28,2.54 -5.74,4.67 -1.48,2.15 -2.23,4.49 -2.23,6.97 0,1.57 0.35,3.14 1.04,4.67 0.63,1.39 1.54,2.71 2.73,3.91 -0.59,0.04 -1.16,0.11 -1.7,0.2 -1.44,0.25 -2.49,1.5 -2.49,2.96 v 0.3 c -0.14,2.52 0.57,4.78 2.11,6.72 1.4,1.77 3.25,3.14 5.48,4.07 2.12,0.88 4.34,1.32 6.59,1.32 2.25,0 4.57,-0.58 6.57,-1.73 2.09,-1.2 3.66,-2.91 4.67,-5.08 0.84,-1.79 1.27,-3.68 1.27,-5.61 0,-1.19 -0.22,-2.41 -0.64,-3.63 -0.41,-1.18 -0.99,-2.28 -1.7,-3.25 -0.02,-0.02 -0.03,-0.05 -0.05,-0.07 -0.32,-0.42 -0.68,-0.82 -1.06,-1.21 L 98.23,69 h 0.28 c 1.44,0 2.68,-1.03 2.95,-2.45 0.21,-1.11 0.31,-2.02 0.31,-2.79 0,-2.13 -0.57,-4.04 -1.69,-5.66 -1.05,-1.52 -2.47,-2.75 -4.22,-3.66 -0.05,-0.03 -0.1,-0.05 -0.16,-0.08 -2.16,-0.97 -4.56,-1.47 -7.12,-1.47 v 0 z"
         id="path48" />
    </g>
  </g>
</svg>
